<?xml version="1.0" encoding="UTF-8" standalone="no"?>
<!-- Created with Inkscape (http://www.inkscape.org/) -->

<svg
   width="128"
   height="128"
   viewBox="0 0 128 128"
   version="1.1"
   id="svg1"
   inkscape:version="1.4 (86a8ad7, 2024-10-11)"
   sodipodi:docname="logo.svg"
   xmlns:inkscape="http://www.inkscape.org/namespaces/inkscape"
   xmlns:sodipodi="http://sodipodi.sourceforge.net/DTD/sodipodi-0.dtd"
   xmlns="http://www.w3.org/2000/svg"
   xmlns:svg="http://www.w3.org/2000/svg">
  <sodipodi:namedview
     id="namedview1"
     pagecolor="#ffffff"
     bordercolor="#000000"
     borderopacity="0.25"
     inkscape:showpageshadow="2"
     inkscape:pageopacity="0.0"
     inkscape:pagecheckerboard="0"
     inkscape:deskcolor="#d1d1d1"
     inkscape:document-units="mm"
     inkscape:zoom="5.7513468"
     inkscape:cx="46.684717"
     inkscape:cy="61.637737"
     inkscape:window-width="1920"
     inkscape:window-height="1009"
     inkscape:window-x="-8"
     inkscape:window-y="-8"
     inkscape:window-maximized="1"
     inkscape:current-layer="layer1"
     showgrid="false" />
  <defs
     id="defs1">
    <rect
       x="28.341188"
       y="40.859995"
       width="121.72488"
       height="18.749167"
       id="rect1" />
  </defs>
  <g
     inkscape:label="Logo"
     inkscape:groupmode="layer"
     id="layer1">
    <circle
       style="fill:#2f284c;stroke-width:2.66804;fill-opacity:1"
       id="path1"
       cx="64"
       cy="64"
       r="64"
       inkscape:label="circle" />
    <path
       d="m 61.637738,42.631074 h 1.762567 v 13.59825 h 7.296844 v 1.55252 h -9.059411 z m 17.315165,-0.292239 q 2.136998,0 3.826505,1.114162 1.844759,1.205486 2.703211,3.415544 0.584478,1.525123 0.584478,3.333352 0,2.392707 -0.986306,4.255731 -0.99544,1.881289 -2.803669,2.831066 -1.51599,0.794525 -3.360749,0.794525 -2.51143,0 -4.337924,-1.433798 -1.66211,-1.296811 -2.356178,-3.479471 -0.447491,-1.379003 -0.447491,-2.968053 0,-3.762578 2.319648,-5.981769 1.963481,-1.881289 4.858475,-1.881289 z m -0.0548,1.479461 q -1.707772,0 -3.022848,1.050234 -2.210058,1.762567 -2.210058,5.342495 0,2.018276 0.757995,3.516002 0.602743,1.187221 1.607315,1.908686 1.260281,0.913247 2.894993,0.913247 2.43837,0 3.91783,-1.917819 1.333341,-1.716904 1.333341,-4.420116 0,-2.785403 -1.406401,-4.538838 -1.488592,-1.853891 -3.872167,-1.853891 z m 20.92249,14.04574 -0.301371,-1.945216 q -0.392696,0.538815 -0.831055,0.904114 -1.497725,1.242016 -3.552531,1.242016 -3.123305,0 -5.150714,-2.173528 -1.981746,-2.118733 -1.981746,-5.634734 0,-3.479472 2.073071,-5.735192 2.009144,-2.191793 5.187243,-2.191793 1.936084,0 3.369882,0.63014 0.92238,0.410962 1.954353,1.223751 l -0.977178,1.287679 q -0.876718,-0.77626 -1.716905,-1.141559 -1.077632,-0.465756 -2.566224,-0.465756 -2.40184,0 -3.91783,1.680375 -1.534255,1.698639 -1.534255,4.739752 0,2.374442 1.004571,3.936095 0.739731,1.150691 1.945217,1.753434 1.105029,0.557081 2.40184,0.557081 1.561652,0 2.721476,-0.803657 0.995439,-0.675803 1.534255,-1.570785 V 51.81834 h -4.301394 v -1.44293 h 5.945237 v 7.488626 z M 110.74304,42.338835 q 2.13699,0 3.8265,1.114162 1.84476,1.205486 2.70321,3.415544 0.58448,1.525123 0.58448,3.333352 0,2.392707 -0.98631,4.255731 -0.99544,1.881289 -2.80367,2.831066 -1.51599,0.794525 -3.36074,0.794525 -2.51143,0 -4.33793,-1.433798 -1.66211,-1.296811 -2.35618,-3.479471 -0.44749,-1.379003 -0.44749,-2.968053 0,-3.762578 2.31965,-5.981769 1.96348,-1.881289 4.85848,-1.881289 z m -0.0548,1.479461 q -1.70777,0 -3.02285,1.050234 -2.21006,1.762567 -2.21006,5.342495 0,2.018276 0.758,3.516002 0.60274,1.187221 1.60731,1.908686 1.26029,0.913247 2.895,0.913247 2.43837,0 3.91783,-1.917819 1.33334,-1.716904 1.33334,-4.420116 0,-2.785403 -1.4064,-4.538838 -1.48859,-1.853891 -3.87217,-1.853891 z"
       id="text1"
       style="font-size:18.7033px;line-height:1;font-family:'BIZ UDPGothic';-inkscape-font-specification:'BIZ UDPGothic';text-align:center;white-space:pre;fill:#ffffff;stroke-width:2.64567"
       transform="matrix(2.0034908,0,0,2.0034908,-113.14974,-33.989791)"
       aria-label="LOGO"
       inkscape:label="text" />
  </g>
</svg>
